{"title":"Rugby.Union-The.Rugby.Club-2013.02.22.hdtv.x264","uid":8177462,"size":406345121,"categoryP":"video","categoryS":"tv_shows","magnet":"?xt=urn:btih:d7b32ea3f9f36e421bd7039f43ab0f1da109282f&amp;dn=Rugby.Union-The.Rugby.Club-2013.02.22.hdtv.x264&amp;tr=udp%3A%2F%2Ftracker.openbittorrent.com%3A80&amp;tr=udp%3A%2F%2Fopen.demonii.com%3A1337&amp;tr=udp%3A%2F%2Ftracker.coppersurfer.tk%3A6969&amp;tr=udp%3A%2F%2Fexodus.desync.com%3A6969","seeders":1,"leechers":0,"uploader":"rugbybill","files":3,"time":1361558480,"description":"SPORT: The Rugby Club\nOn: Sky Sports HD 3\nDate: Friday 22nd February 2013\nTime: 12:00 to 13:00 \n\nAlex Payne is joined in the studio by Bob Casey, Dewi Morris and Stuart Barnes. They look back over the weeks action in the Aviva premiership, Super Rugby and preview the Six Nations.\n\n\nGeneral\nComplete name: 2013.02.21.Rugby.Club.hdtv.x264.mp4\nFormat: MPEG-4\nFormat profile: Base Media\nCodec ID: isom\nFile size: 387 MiB\nDuration: 47mn 11s\nOverall bit rate mode: Variable\nOverall bit rate: 1 146 Kbps\n\nVideo\nID: 1\nFormat: AVC\nFormat/Info: Advanced Video Codec\nFormat profile: &lt;a class=&quot;__cf_email__&quot; href=&quot;/cdn-cgi/l/email-protection&quot; data-cfemail=&quot;91d9f8f6f9d1dda2bfa0&quot;&gt;[email&amp;#160;protected]&lt;/a&gt;&lt;script cf-hash='f9e31' type=&quot;text/javascript&quot;&gt;\n/* &lt;![CDATA[ */!function(){try{var t=&quot;currentScript&quot;in document?document.currentScript:function(){for(var t=document.getElementsByTagName(&quot;script&quot;),e=t.length;e--;)if(t[e].getAttribute(&quot;cf-hash&quot;))return t[e]}();if(t&amp;&amp;t.previousSibling){var e,r,n,i,c=t.previousSibling,a=c.getAttribute(&quot;data-cfemail&quot;);if(a){for(e=&quot;&quot;,r=parseInt(a.substr(0,2),16),n=2;a.length-n;n+=2)i=parseInt(a.substr(n,2),16)^r,e+=String.fromCharCode(i);e=document.createTextNode(e),c.parentNode.replaceChild(e,c)}}}catch(u){}}();/* ]]&gt; */&lt;/script&gt;\nFormat settings, CABAC: Yes\nFormat settings, ReFrames: 8 frames\nCodec ID: avc1\nCodec ID/Info: Advanced Video Coding\nDuration: 47mn 11s\nBit rate: 1 014 Kbps\nMaximum bit rate: 5 165 Kbps\nWidth: 720 pixels\nHeight: 416 pixels\nDisplay aspect ratio: 1.731\nFrame rate mode: Constant\nFrame rate: 25.000 fps\nColor space: YUV\nChroma subsampling: 4:2:0\nBit depth: 8 bits\nScan type: Progressive\nBits/(Pixel*Frame): 0.135\nStream size: 342 MiB (88%)\nWriting library: x264 core 129 r2245 bc13772\n\nAudio\nID: 2\nFormat: AAC\nFormat/Info: Advanced Audio Codec\nFormat profile: LC\nCodec ID: 40\nDuration: 47mn 11s\nBit rate mode: Variable\nBit rate: 128 Kbps\nMaximum bit rate: 141 Kbps\nChannel(s): 2 channels\nChannel positions: Front: L R\nSampling rate: 48.0 KHz\nCompression mode: Lossy\nDelay relative to video: 80ms\nStream size: 43.2 MiB (11%)\nLanguage: English","torrent":{"xt":"urn:btih:d7b32ea3f9f36e421bd7039f43ab0f1da109282f","amp;dn":"Rugby.Union-The.Rugby.Club-2013.02.22.hdtv.x264","amp;tr":["udp%3A%2F%2Ftracker.openbittorrent.com%3A80","udp%3A%2F%2Fopen.demonii.com%3A1337","udp%3A%2F%2Ftracker.coppersurfer.tk%3A6969","udp%3A%2F%2Fexodus.desync.com%3A6969"],"infoHash":"d7b32ea3f9f36e421bd7039f43ab0f1da109282f","infoHashBuffer":{"type":"Buffer","data":[215,179,46,163,249,243,110,66,27,215,3,159,67,171,15,29,161,9,40,47]},"announce":[],"urlList":[]}}